<svg xmlns="http://www.w3.org/2000/svg" viewBox="0 0 100 100" width="100" height="100">
  <defs>
    <linearGradient id="grad" x1="0%" y1="0%" x2="100%" y2="100%">
      <stop offset="0%" style="stop-color:#6C63FF;stop-opacity:1" />
      <stop offset="100%" style="stop-color:#00D9FF;stop-opacity:1" />
    </linearGradient>
  </defs>
  <path d="M50,15 C40,15 32,23 32,33 C32,41 37,48 44,50 C44,52 42,55 40,58 C37,62 33,65 30,68 C27,71 27,75 30,78 C33,81 37,81 40,78 C43,75 46,71 48,67 C49,65 50,62 50,60 C50,62 51,65 52,67 C54,71 57,75 60,78 C63,81 67,81 70,78 C73,75 73,71 70,68 C67,65 63,62 60,58 C58,55 56,52 56,50 C63,48 68,41 68,33 C68,23 60,15 50,15 Z" fill="url(#grad)" />
  <circle cx="50" cy="33" r="6" fill="#FFFFFF" />
</svg>
